<?xml version="1.0" encoding="iso-8859-1"?>
<!-- Generator: Adobe Illustrator 19.1.0, SVG Export Plug-In . SVG Version: 6.00 Build 0)  -->
<svg version="1.1" id="Capa_1" xmlns="http://www.w3.org/2000/svg" xmlns:xlink="http://www.w3.org/1999/xlink" x="0px" y="0px"
	 viewBox="0 0 163.939 163.939" style="enable-background:new 0 0 163.939 163.939;" xml:space="preserve">
<g id="XMLID_6_">
	<path id="XMLID_67_" style="fill:#020400;" d="M114.578,49.509c5.513-2.436,6.039-6.983,1.277-10.888
		c-1.158-0.95-1.096-1.581,0.091-2.509c4.704-3.679,3.881-8.793-1.778-10.985c-1.402-0.543-1.81-1.165-0.811-2.341
		c1.929-2.269,1.861-4.672,0.368-7.039c-1.435-2.276-3.518-3.395-6.283-2.676c-1.527,0.397-2.183-0.373-1.851-1.674
		c0.722-2.826-0.37-4.815-2.609-6.282c-2.364-1.549-4.752-1.557-7.064,0.263c-1.231,0.969-2.155,0.766-2.496-0.901
		c-0.549-2.68-2.334-4.001-4.913-4.386c-2.601-0.389-4.691,0.48-6.004,2.796c-0.833,1.47-1.626,1.679-2.534,0.175
		c-1.468-2.432-3.682-3.215-6.315-2.729c-2.552,0.472-4.204,2.074-4.735,4.677c-0.343,1.68-1.182,1.856-2.454,0.895
		c-2.283-1.725-4.642-1.534-6.825,0.025c-2.13,1.521-3.332,3.543-2.483,6.359c0.435,1.442-0.063,2.356-1.781,1.993
		c-2.848-0.602-4.792,0.782-6.096,3.048c-1.272,2.212-1.308,4.592,0.484,6.602c1.346,1.51,1.183,2.225-0.783,2.783
		c-2.573,0.73-3.882,2.715-4.112,5.241c-0.221,2.421,0.695,4.457,2.993,5.662c1.642,0.861,1.676,1.703,0.037,2.676
		c-2.208,1.312-2.968,3.382-2.657,5.841c0.301,2.379,1.654,4.062,3.933,4.755c1.99,0.605,2.036,1.28,0.688,2.753
		c-3.571,3.903-1.827,9.046,3.376,10.074c1.74,0.344,2.162,0.808,1.032,2.484c-2.919,4.328-0.358,9.401,4.769,9.506
		c1.937,0.04,2.578,0.477,1.652,2.378c-1.132,2.326-0.519,4.449,1.111,6.292c1.665,1.882,3.846,2.557,6.182,1.711
		c1.975-0.715,2.48-0.102,2.407,1.754c-0.114,2.863,1.497,4.505,3.988,5.546c2.535,1.059,4.741,0.315,6.84-1.245
		c0.343,1.11,0.412,1.906-0.806,2.325c-0.579,0.199-1.121,0.618-1.578,1.046c-2.715,2.543-2.295,6.779,0.901,8.953
		c0.799,0.544,1.886,0.708,1.717,2.097c-0.191,1.576-1.378,0.762-2.112,0.959c-2.079,0.557-2.943,1.896-2.933,3.999
		c0.031,6.382,0.072,12.765-0.016,19.146c-0.038,2.742,0.956,4.368,3.816,4.56c0.531,0.036,1.138-0.07,1.206,0.727
		c0.054,0.641-0.391,0.881-0.826,1.251c-2.425,2.061-2.786,3.881-0.696,6.252c1.255,1.423,0.911,2.339,0.268,3.716
		c-2.017,4.325-2.363,8.712-0.062,13.083c0.251,0.559,0.405,1.197,0.776,1.659c0.575,0.715,0.611,2.16,1.812,2.017
		c1.09-0.13,1.735-1.113,1.939-2.253c0.245-0.253,0.728-0.54,0.697-0.753c-0.414-2.891,0.859-5.404,1.54-8.081
		c0.484-1.901-0.417-3.966-1.377-5.738c-0.703-1.298-0.945-2.171,0.179-3.538c2.073-2.522,1.729-4.231-0.81-6.462
		c-0.447-0.393-0.856-0.694-0.7-1.306c0.186-0.726,0.843-0.535,1.35-0.572c2.388-0.174,3.64-1.349,3.627-3.84
		c-0.033-6.747-0.014-13.494-0.013-20.241c0-2.18-1.105-3.35-3.241-3.649c-0.63-0.088-1.545,0.413-1.764-0.717
		c-0.21-1.08,0.366-1.528,1.262-2.068c4.284-2.584,4.354-7.615,0.055-10.096c-1.371-0.791-1.511-1.556-1.183-2.806
		c5.75,3.308,9.904,1.047,10.456-5.641c0.085-1.031,0.616-1.535,1.808-1.372c6.484,0.886,9.339-2.381,7.365-8.406
		c-0.453-1.382-0.123-1.985,1.39-2.092c5.757-0.409,7.903-4.634,4.902-9.673c-0.752-1.262-0.691-1.91,0.836-2.353
		c5.723-1.661,6.99-5.806,3.182-10.325C113.326,50.919,113.012,50.201,114.578,49.509z M111.107,38.712
		c-4.154,2.309-4.686,6.365-1.166,9.598c1.678,1.542,1.472,2.167-0.647,2.831c-4.388,1.376-5.619,5.689-2.645,9.276
		c1.529,1.843,1.016,2.355-1.116,2.636c-4.551,0.601-6.548,4.595-4.262,8.661c1.076,1.913,0.768,2.392-1.356,2.334
		c-5.035-0.138-7.116,2.383-6.161,7.335c0.123,0.639,0.337,1.198-0.276,1.733c-0.704,0.615-1.164-0.025-1.703-0.24
		c-4.298-1.711-6.367-0.808-8.079,3.503c-0.208,0.523,0.04,1.356-0.934,1.431c-1.034,0.079-1.088-0.762-1.393-1.379
		c-1.984-4.01-4.104-4.777-8.09-2.806c-0.676,0.334-1.196,0.83-1.913,0.211c-0.649-0.56-0.158-1.122-0.047-1.727
		c0.797-4.351-1.57-7.111-5.986-7.004c-2.197,0.323-3.149,0.047-1.77-2.524c2.077-3.872-0.223-7.855-4.655-8.28
		c-2.332-0.224-2.436-0.833-1.054-2.582c2.865-3.625,1.552-7.904-2.878-9.259c-2.05-0.627-2.562-1.046-0.735-2.694
		c3.348-3.02,2.86-7.421-1.077-9.48c-2.273-1.189-2.004-1.788-0.017-2.999c3.708-2.26,4.012-6.082,0.933-9.165
		c-0.48-0.481-1.381-0.683-1.119-1.662c0.247-0.927,1.03-0.833,1.743-0.969c4.313-0.823,5.927-3.695,4.452-7.793
		c-0.218-0.607-0.971-1.104-0.326-1.942c0.763-0.993,1.509-0.223,2.191-0.046c4.101,1.063,6.812-0.765,7.238-4.933
		c0.067-0.658-0.282-1.403,0.657-1.872c1.141-0.569,1.415,0.421,1.975,0.888c3.335,2.78,6.949,2.051,9.064-1.826
		c0.316-0.579,0.233-1.516,1.307-1.476c0.984,0.037,1.019,0.878,1.376,1.47c2.296,3.812,5.856,4.37,9.103,1.433
		c0.569-0.514,0.879-1.397,1.991-0.971c1.026,0.393,0.597,1.196,0.69,1.834c0.583,4.01,3.557,5.835,7.562,4.605
		c0.641-0.197,1.208-0.937,1.962-0.294c0.875,0.747,0.17,1.445-0.044,2.202c-1.185,4.196,0.565,6.829,4.982,7.562
		c0.586,0.097,1.223-0.154,1.593,0.67c0.458,1.019-0.394,1.243-0.837,1.729c-3.191,3.5-2.624,7.038,1.515,9.422
		c0.508,0.293,1.287,0.222,1.31,1.137C112.487,38.277,111.742,38.359,111.107,38.712z"/>
</g>
<g>
</g>
<g>
</g>
<g>
</g>
<g>
</g>
<g>
</g>
<g>
</g>
<g>
</g>
<g>
</g>
<g>
</g>
<g>
</g>
<g>
</g>
<g>
</g>
<g>
</g>
<g>
</g>
<g>
</g>
</svg>
